<?xml version="1.0" standalone="no"?>
<!DOCTYPE svg PUBLIC "-//W3C//DTD SVG 20010904//EN"
 "http://www.w3.org/TR/2001/REC-SVG-20010904/DTD/svg10.dtd">
<svg version="1.0" xmlns="http://www.w3.org/2000/svg"
 width="1000.000000pt" height="1000.000000pt" viewBox="0 0 1000.000000 1000.000000"
 preserveAspectRatio="xMidYMid meet">
<metadata>
Created by potrace 1.11, written by Peter Selinger 2001-2013
</metadata>
<g transform="translate(0.000000,1000.000000) scale(0.100000,-0.100000)"
fill="#000000" stroke="none">
<path d="M4710 8559 c-41 -4 -104 -10 -140 -13 -126 -12 -351 -54 -497 -92
-1181 -307 -2126 -1200 -2502 -2364 -39 -123 -74 -252 -86 -319 -3 -19 -8 -37
-10 -41 -6 -9 -35 -184 -41 -243 -3 -29 -7 -58 -9 -65 -26 -76 -26 -736 0
-857 5 -25 12 -72 20 -150 4 -33 11 -64 16 -70 7 -7 325 -10 914 -10 l905 0 0
65 c1 183 1 249 1 288 l-1 42 -735 0 -735 0 -6 25 c-9 36 -11 354 -3 443 4 43
10 106 13 142 4 36 10 90 16 120 5 30 11 72 14 92 12 80 50 239 86 358 113
377 296 732 534 1035 104 133 116 147 281 310 169 168 330 298 533 428 l137
88 44 -48 c24 -26 122 -129 217 -228 95 -99 189 -202 210 -229 58 -78 78 -180
54 -276 -4 -19 -11 -93 -14 -165 -3 -71 -8 -141 -11 -154 -9 -46 -19 -166 -29
-336 -4 -60 -8 -135 -11 -165 -2 -30 -7 -107 -10 -170 -3 -63 -10 -151 -15
-195 -5 -44 -10 -98 -11 -120 -1 -22 -5 -53 -10 -70 -4 -16 -11 -52 -14 -79
-3 -28 -12 -61 -20 -75 -8 -14 -21 -44 -30 -66 -9 -22 -21 -48 -26 -57 -5 -10
-9 -27 -9 -37 0 -11 -4 -23 -10 -26 -5 -3 -10 -35 -10 -69 l0 -64 -65 -42
c-75 -49 -105 -82 -105 -117 0 -35 35 -98 80 -143 53 -53 80 -52 161 5 35 25
102 71 149 103 47 31 91 63 99 70 8 7 24 20 37 29 13 8 24 21 24 27 0 12 343
266 358 266 4 -1 94 -118 201 -261 107 -143 206 -266 220 -273 14 -8 47 -17
73 -20 67 -9 135 -40 143 -66 4 -12 28 -67 55 -123 98 -207 130 -280 136 -302
5 -19 15 -24 62 -29 31 -4 71 -9 88 -12 31 -5 32 -4 64 76 l34 80 35 -6 c20
-3 51 -10 69 -16 39 -12 45 -7 61 44 l12 37 57 -31 c31 -17 67 -37 79 -44 45
-28 49 -21 68 111 l18 126 26 -5 c99 -20 100 -20 106 7 5 20 -11 56 -76 169
-131 226 -132 229 -124 315 6 71 18 141 50 287 8 38 17 89 20 113 7 59 51 261
64 296 13 35 14 88 2 120 -10 26 -52 77 -180 215 -47 52 -89 99 -93 106 -5 8
35 43 115 103 191 142 221 162 263 175 21 7 40 20 42 29 4 21 76 97 122 129
44 30 50 39 50 71 0 53 -28 98 -75 121 -50 24 -70 19 -125 -33 -26 -26 -29
-26 -51 -11 -17 12 -42 15 -108 12 -179 -7 -332 0 -368 18 -10 5 -36 9 -58 10
-66 3 -176 23 -245 44 -36 11 -117 31 -180 44 -63 14 -131 29 -150 33 -91 22
-189 42 -223 47 -22 2 -82 16 -135 31 -104 28 -161 41 -205 48 -15 3 -36 9
-45 14 -17 9 -87 25 -217 52 -102 20 -163 48 -193 88 -31 42 -77 93 -222 243
-202 211 -249 262 -244 269 4 8 229 119 239 119 4 0 30 11 60 25 135 61 443
153 611 181 16 2 52 9 79 14 68 13 128 20 202 25 35 2 67 6 72 9 10 7 533 0
571 -7 14 -3 50 -8 80 -11 112 -13 329 -59 475 -101 333 -96 664 -256 950
-458 55 -39 105 -76 111 -82 6 -5 30 -26 55 -45 167 -133 348 -318 495 -505
190 -242 333 -490 450 -782 53 -133 137 -403 148 -477 4 -21 8 -42 11 -46 2
-3 7 -22 10 -41 3 -19 10 -59 15 -89 5 -30 12 -77 15 -105 3 -27 10 -77 14
-110 9 -67 13 -505 4 -547 l-5 -28 -734 0 c-727 0 -734 0 -735 -20 -1 -26 -1
-312 0 -347 l1 -28 910 0 c501 0 910 0 910 0 0 0 9 63 19 140 10 77 19 147 20
155 0 8 4 51 8 95 15 156 9 512 -13 688 -62 511 -234 1012 -491 1432 -110 180
-261 386 -385 523 -139 154 -375 373 -503 467 -22 16 -44 33 -50 38 -70 58
-295 199 -445 280 -388 207 -874 356 -1280 393 -30 2 -73 7 -95 11 -61 9 -470
11 -555 2z m-682 -1365 c2 -1 -10 -10 -27 -19 -26 -13 -31 -13 -31 -1 0 8 -3
21 -6 30 -5 14 -2 14 27 4 19 -6 36 -12 37 -14z m138 -60 c27 -8 63 -17 79
-20 17 -3 57 -12 90 -21 58 -15 102 -25 175 -38 19 -3 109 -24 200 -45 91 -22
244 -58 340 -81 96 -22 183 -45 192 -50 10 -5 18 -7 18 -4 0 3 13 -1 29 -9 16
-9 58 -20 94 -26 37 -6 82 -20 101 -31 34 -20 179 -60 220 -61 26 0 47 -8 108
-38 l48 -23 -57 -40 c-32 -22 -91 -65 -133 -97 -113 -85 -372 -271 -374 -268
-1 2 -8 21 -15 43 -38 111 -111 148 -213 108 -71 -27 -95 -49 -113 -104 -15
-44 -20 -50 -39 -44 -62 18 -81 15 -151 -22 -68 -37 -70 -39 -84 -93 -8 -30
-15 -56 -16 -57 -1 -2 -15 1 -33 6 -26 8 -39 4 -89 -25 -93 -56 -102 -68 -106
-149 l-4 -69 -39 2 c-34 3 -48 -3 -92 -38 -68 -54 -81 -81 -76 -150 4 -51 37
-120 57 -120 4 0 7 -6 7 -14 0 -8 -37 -40 -82 -72 -46 -32 -117 -83 -158 -114
-93 -70 -97 -72 -97 -57 0 7 -9 55 -19 107 -9 52 -17 106 -17 120 1 14 4 153
7 310 3 157 8 312 11 345 9 93 13 151 20 270 4 61 9 126 12 145 2 19 6 103 8
185 4 154 12 267 21 298 6 20 69 56 100 57 11 0 43 -7 70 -16z m1773 -361 c-7
-10 -14 -19 -14 -20 0 -1 -18 4 -40 11 -42 15 -32 23 34 25 30 1 32 -1 20 -16z
m-759 -414 c21 -12 43 -31 48 -43 27 -55 58 -145 53 -153 -4 -4 -41 -41 -82
-81 l-76 -73 -56 116 c-32 64 -57 119 -57 123 0 4 5 24 11 45 9 33 18 42 62
62 64 29 52 29 97 4z m426 -94 c18 -7 62 -50 105 -101 41 -49 98 -113 126
-144 89 -93 89 -93 54 -282 -17 -90 -32 -174 -35 -188 -3 -22 -10 -58 -22
-125 -2 -11 -13 -69 -25 -129 -11 -60 -22 -122 -24 -139 -5 -35 -47 -75 -165
-155 -47 -31 -100 -70 -119 -86 -31 -25 -40 -28 -80 -22 -136 18 -129 18 -101
2 14 -7 57 -24 97 -37 68 -21 73 -22 95 -6 86 63 250 167 262 167 5 0 206
-336 206 -345 0 -3 -4 -4 -9 0 -6 3 -28 8 -50 11 -30 4 -41 2 -42 -8 -1 -13
-2 -20 -14 -85 -3 -18 -8 -53 -11 -79 -6 -63 -11 -68 -47 -46 -59 36 -129 73
-132 70 -1 -2 -10 -24 -20 -50 -19 -52 -13 -51 -105 -27 -19 5 -40 9 -46 9 -6
0 -25 -36 -44 -81 l-33 -81 -46 6 c-25 2 -47 5 -47 5 -1 1 -9 18 -17 39 -8 20
-33 75 -55 122 -51 109 -89 192 -118 258 -26 57 -35 63 -134 88 -111 27 -121
35 -240 185 -47 59 -98 124 -115 144 -62 77 -145 190 -145 198 0 14 39 -13 55
-37 10 -15 33 -28 60 -35 79 -20 96 -15 149 38 44 44 48 53 42 81 -5 30 -4 32
17 25 38 -12 70 -6 109 21 53 37 59 46 60 99 0 39 3 45 17 39 42 -17 62 -15
115 15 56 32 59 38 71 104 3 20 8 37 11 37 3 0 19 -9 35 -21 l30 -21 -19 -31
c-23 -38 -109 -197 -133 -246 -11 -24 -14 -43 -9 -65 5 -17 16 -64 25 -103 10
-40 20 -73 24 -73 7 0 -4 118 -14 150 -9 28 20 93 141 313 75 138 131 228 160
257 24 25 44 49 44 53 0 3 23 38 51 77 52 71 58 100 20 100 -14 0 -37 -26 -76
-85 -31 -46 -64 -86 -73 -89 -9 -2 -59 -10 -111 -17 l-94 -13 -23 29 -23 29
75 75 c66 66 76 73 90 59 13 -13 11 -21 -16 -73 -17 -32 -28 -60 -25 -63 13
-13 75 66 90 115 5 19 1 25 -20 33 -30 12 -31 10 35 83 68 76 117 88 206 52z
m-669 -66 c12 -11 168 -322 200 -400 8 -20 13 -54 11 -75 -3 -33 -9 -42 -43
-61 -22 -13 -45 -23 -51 -23 -17 0 -98 74 -114 106 -8 16 -32 58 -53 93 -22
35 -47 78 -57 96 -10 18 -24 43 -32 56 -7 13 -16 26 -19 29 -3 3 -14 20 -23
38 -27 53 5 132 64 155 21 9 100 -1 117 -14z m-258 -163 c33 -18 271 -413 271
-449 0 -41 -16 -65 -58 -85 -62 -31 -85 -18 -160 88 -25 36 -49 67 -52 70 -3
3 -28 37 -55 75 -28 39 -65 90 -83 114 -28 37 -33 51 -30 90 2 40 7 49 37 69
64 44 91 49 130 28z m674 -163 c9 -15 -21 -71 -47 -88 -24 -16 -27 -16 -56 5
-17 12 -37 34 -45 50 l-15 29 48 3 c26 2 61 4 79 6 17 1 34 -1 36 -5z m-886
-71 c6 -4 24 -23 40 -43 16 -20 62 -73 102 -118 147 -162 171 -221 114 -283
-21 -23 -90 -24 -123 -1 -27 19 -179 163 -249 236 -71 75 -72 124 -3 184 37
32 90 43 119 25z m-588 -522 c1 -18 -82 -74 -87 -60 -3 9 12 70 38 150 21 66
23 66 36 -5 7 -38 13 -77 13 -85z"/>
<path d="M4643 7995 c-141 -19 -169 -46 -159 -149 3 -34 8 -88 11 -121 7 -73
31 -142 53 -154 31 -17 80 -16 222 4 14 2 31 4 38 4 9 1 12 13 10 39 -3 36 -4
37 -43 36 -22 -1 -68 -5 -101 -9 -34 -4 -64 -3 -67 2 -3 5 -8 27 -12 50 -5 39
-4 42 22 47 32 6 122 18 141 19 9 0 12 12 10 36 -3 34 -5 36 -38 35 -19 0 -60
-3 -91 -7 -55 -7 -57 -6 -63 18 -10 38 9 65 47 66 18 0 41 2 52 5 11 2 34 5
51 7 17 2 35 7 41 10 20 12 -5 80 -27 76 -3 -1 -47 -7 -97 -14z"/>
<path d="M5325 7981 c-11 -18 -80 -400 -73 -406 1 -1 22 -6 45 -10 46 -7 44
-9 59 90 3 22 9 43 12 46 4 4 37 2 74 -4 58 -9 73 -8 106 7 97 44 105 193 14
240 -27 14 -175 46 -213 46 -10 0 -20 -4 -24 -9z m157 -98 c35 -7 51 -34 43
-73 -8 -36 -31 -44 -96 -35 -49 7 -50 8 -45 36 19 96 16 91 43 84 14 -3 38 -9
55 -12z"/>
<path d="M4080 7880 c-45 -17 -45 -18 -83 -121 -21 -57 -39 -104 -41 -106 -1
-2 -15 35 -31 81 l-28 84 -44 -15 c-24 -8 -43 -16 -43 -17 0 -11 133 -393 139
-399 8 -8 81 19 81 30 0 3 -8 30 -17 59 -13 42 -14 59 -5 76 6 13 14 33 17 46
6 22 9 20 58 -27 78 -74 111 -101 125 -101 16 0 82 27 82 34 0 3 -23 27 -52
53 -28 26 -78 73 -110 103 l-58 55 28 70 c53 128 54 123 -18 95z"/>
<path d="M5950 7725 c-38 -47 -101 -123 -140 -169 l-70 -84 46 -18 46 -18 32
37 31 36 63 -27 63 -26 -3 -46 c-3 -47 4 -55 70 -75 21 -6 22 -4 23 52 1 32 2
81 4 108 12 208 14 272 7 282 -9 14 -56 33 -82 33 -12 0 -47 -33 -90 -85z m86
-105 c-10 -87 -6 -84 -73 -59 -22 8 -22 10 24 74 26 36 50 65 53 65 3 0 1 -36
-4 -80z"/>
<path d="M3343 7538 c-18 -11 -33 -28 -33 -38 0 -20 84 -371 97 -407 l8 -23
39 26 c39 27 42 41 21 96 -5 12 8 26 52 55 l59 39 37 -30 c39 -31 48 -30 101
9 19 14 19 15 -5 34 -13 10 -34 28 -47 39 -13 11 -42 35 -64 54 -23 18 -78 63
-122 100 -45 37 -88 67 -96 67 -8 0 -30 -10 -47 -21z m139 -157 l47 -45 -37
-22 c-20 -13 -40 -20 -43 -16 -4 4 -16 40 -27 80 -23 83 -26 83 60 3z"/>
<path d="M6513 7508 c-22 -29 -77 -106 -123 -171 l-83 -119 29 -24 c16 -13 34
-23 40 -24 5 0 23 18 40 41 16 22 38 52 50 67 l21 25 38 -28 c36 -28 37 -31
31 -74 -3 -24 -10 -49 -15 -55 -4 -6 -13 -25 -19 -43 -10 -30 -8 -33 25 -59
19 -15 38 -23 43 -18 16 16 60 144 60 174 0 26 4 30 28 30 31 0 75 39 90 80
12 33 7 72 -12 103 -16 23 -156 130 -187 142 -11 4 -28 -11 -56 -47z m117 -94
c44 -30 56 -54 40 -84 -15 -28 -52 -25 -100 6 -22 15 -40 29 -40 31 0 6 52 73
56 73 3 0 22 -12 44 -26z"/>
<path d="M2924 7222 l-32 -37 90 -119 c49 -65 83 -116 75 -113 -8 3 -63 35
-122 72 -116 72 -136 75 -168 30 -18 -25 -18 -26 7 -68 15 -23 51 -78 81 -121
31 -43 54 -81 52 -83 -2 -2 -46 25 -98 60 -165 112 -143 105 -184 61 l-36 -38
48 -29 c260 -154 318 -187 329 -187 19 0 64 48 64 67 0 9 -33 66 -74 127 -97
147 -96 145 -66 125 76 -50 234 -139 245 -139 19 0 65 47 65 66 0 15 -227 358
-239 361 -3 0 -20 -15 -37 -35z"/>
<path d="M6984 7062 c-50 -48 -116 -111 -147 -140 -31 -28 -58 -56 -61 -61 -3
-5 8 -24 24 -42 l29 -34 43 41 c36 35 52 42 94 47 l52 6 -20 -62 c-11 -34 -27
-84 -35 -110 l-15 -49 33 -34 c17 -18 36 -31 40 -29 4 3 26 65 49 138 23 72
46 136 50 141 8 8 59 14 148 15 23 1 42 4 42 9 0 4 -15 23 -33 43 -37 40 -26
38 -186 25 l-76 -7 63 61 63 61 -28 34 c-15 18 -30 34 -33 34 -3 0 -46 -39
-96 -87z"/>
<path d="M6643 5505 c-18 -8 -33 -18 -33 -23 0 -16 13 -22 26 -11 15 12 76 15
93 4 26 -15 11 -54 -31 -83 -61 -43 -89 -75 -91 -108 l-2 -29 88 -3 c73 -2 87
0 87 13 0 12 -14 15 -71 15 l-70 0 16 28 c10 16 36 40 59 55 50 31 71 66 62
101 -11 45 -78 66 -133 41z"/>
<path d="M6882 5507 c-41 -24 -56 -56 -56 -126 0 -46 6 -74 18 -93 38 -59 135
-56 168 5 15 28 19 121 6 157 -5 16 -17 35 -26 43 -24 22 -83 29 -110 14z m65
-23 c63 -17 59 -187 -4 -211 -9 -4 -28 0 -42 8 -48 27 -58 142 -16 189 19 21
27 23 62 14z"/>
<path d="M7123 5508 c-36 -12 -47 -44 -12 -35 28 8 35 -15 31 -112 -3 -78 -4
-81 -28 -81 -15 0 -24 -6 -24 -15 0 -12 14 -15 70 -15 56 0 70 3 70 15 0 9 -9
15 -25 15 -14 0 -25 3 -26 8 0 4 -2 54 -3 112 -2 58 -4 108 -5 113 -1 9 -7 8
-48 -5z"/>
<path d="M7353 5506 c-39 -12 -47 -42 -9 -32 15 4 25 1 28 -7 3 -10 2 -154 -1
-179 -1 -5 -12 -8 -26 -8 -16 0 -25 -6 -25 -15 0 -12 14 -15 70 -15 56 0 70 3
70 15 0 9 -9 15 -25 15 -17 0 -25 6 -26 18 0 9 -1 62 -2 116 -1 57 -6 100 -12
101 -5 1 -25 -3 -42 -9z"/>
<path d="M2977 5503 c-4 -3 -7 -14 -7 -24 0 -10 -9 -21 -20 -24 -23 -7 -27
-25 -5 -25 12 0 15 -14 16 -62 1 -35 1 -70 0 -79 -2 -22 31 -49 54 -44 11 2
26 4 33 4 6 1 12 7 12 15 0 10 -8 13 -25 10 -31 -5 -41 15 -39 81 2 75 2 75
30 75 16 0 24 5 21 13 -2 6 -14 11 -25 11 -12 -1 -23 5 -23 12 -3 27 -4 32
-10 38 -3 3 -9 3 -12 -1z"/>
<path d="M2588 5443 c-40 -25 -54 -110 -27 -160 25 -46 139 -53 139 -8 0 11
-6 12 -22 6 -31 -11 -70 -4 -85 16 -26 34 -16 42 55 45 l67 3 3 32 c6 66 -68
104 -130 66z m86 -29 c31 -31 20 -44 -39 -44 -59 0 -63 4 -39 38 18 26 56 29
78 6z"/>
<path d="M2785 5446 c-28 -20 -27 -63 2 -86 14 -11 33 -20 42 -20 10 0 22 -5
29 -12 13 -13 16 -48 5 -49 -5 0 -16 -2 -27 -4 -10 -2 -30 1 -44 6 -18 7 -27
6 -33 -3 -10 -15 4 -24 50 -31 103 -16 134 77 39 118 -51 23 -61 34 -45 53 7
9 24 12 48 9 27 -3 39 -1 43 9 3 8 -1 15 -12 15 -9 1 -31 3 -49 5 -17 1 -39
-3 -48 -10z"/>
<path d="M2143 4059 c-21 -10 -52 -32 -70 -51 -53 -55 -63 -92 -63 -232 l0
-124 -35 -22 c-44 -27 -44 -42 -1 -63 l35 -16 3 -145 c3 -143 3 -144 34 -188
71 -98 219 -136 329 -84 97 45 138 110 140 223 4 123 5 120 -83 122 -52 1 -78
-3 -84 -11 -4 -7 -8 -40 -8 -74 0 -51 -4 -66 -25 -88 -48 -52 -134 -18 -136
56 -3 98 -3 466 0 485 4 29 48 73 72 73 58 0 89 -42 89 -120 0 -27 5 -52 11
-55 16 -11 141 -7 152 4 16 16 19 86 7 148 -8 47 -18 65 -52 100 -64 65 -109
83 -200 81 -49 -1 -90 -8 -115 -19z"/>
<path d="M3027 4067 c-21 -7 -26 -23 -61 -211 l-39 -203 -44 -22 c-23 -11 -43
-25 -43 -31 0 -6 16 -20 35 -32 24 -13 34 -26 31 -37 -3 -9 -10 -43 -16 -76
-5 -33 -12 -71 -15 -85 -3 -14 -8 -41 -11 -60 -3 -19 -12 -65 -19 -102 -9 -51
-10 -70 -1 -77 17 -14 152 -12 164 2 6 7 15 41 22 77 16 86 29 120 49 122 108
10 123 -3 137 -119 10 -88 11 -90 98 -90 113 -1 110 -16 57 261 -16 88 -28
163 -25 168 3 4 19 15 36 24 28 15 29 16 13 34 -9 10 -29 23 -44 30 -27 11
-30 18 -56 153 -15 78 -28 154 -30 169 -9 63 -26 108 -43 109 -84 4 -176 3
-195 -4z m132 -492 c15 -76 10 -88 -40 -83 -38 3 -39 7 -25 93 16 98 45 94 65
-10z"/>
<path d="M3804 4062 c-11 -10 -14 -59 -14 -216 l0 -202 -35 -17 c-19 -9 -35
-23 -35 -31 0 -8 16 -23 35 -32 l35 -16 0 -203 c0 -161 3 -205 14 -214 17 -14
136 -13 154 2 9 7 12 52 12 161 0 160 4 176 46 176 32 0 39 -14 73 -145 18
-66 38 -138 47 -161 14 -41 14 -41 71 -43 31 -1 59 -4 64 -6 4 -3 10 -1 14 4
3 6 12 8 20 5 8 -4 17 0 20 8 5 13 -17 117 -29 136 -3 5 -7 19 -9 33 -3 13
-16 64 -31 112 -23 81 -26 147 -7 147 4 0 15 15 26 33 16 27 20 54 22 162 3
179 -1 200 -52 250 -55 55 -109 68 -289 70 -105 0 -142 -3 -152 -13z m309
-184 c24 -28 24 -168 0 -209 -26 -45 -91 -58 -130 -26 -14 10 -19 233 -5 253
18 29 104 17 135 -18z"/>
<path d="M4763 4072 c-26 -4 -25 14 -27 -240 l-1 -183 -30 -17 c-16 -9 -33
-21 -37 -27 -8 -10 39 -55 58 -55 7 0 11 -65 11 -206 0 -166 3 -208 14 -215 8
-5 46 -8 84 -7 l70 3 5 160 c3 88 9 166 13 173 10 14 63 16 72 2 6 -10 68
-233 79 -287 10 -46 29 -57 94 -54 86 3 97 6 100 28 2 11 -18 91 -43 178 -25
87 -45 170 -45 184 0 14 14 46 30 70 32 47 33 58 30 270 -2 128 -35 176 -144
211 -35 11 -283 21 -333 12z m291 -185 c22 -22 29 -161 10 -206 -18 -42 -70
-65 -113 -50 -17 6 -31 14 -32 17 -6 34 -8 186 -3 221 l6 43 58 -4 c35 -2 64
-10 74 -21z"/>
<path d="M5700 4068 c-19 -7 -20 -15 -20 -212 l0 -204 -35 -22 c-19 -12 -35
-28 -35 -35 0 -8 16 -22 35 -31 l35 -16 0 -203 c0 -150 3 -205 13 -213 7 -6
95 -10 219 -10 164 -1 211 2 222 13 18 18 18 121 0 136 -7 6 -63 11 -133 12
-83 1 -124 6 -133 15 -9 9 -12 41 -11 105 2 113 6 117 119 117 91 0 90 -1 93
75 2 76 -7 83 -125 84 -78 1 -86 12 -88 116 -3 126 -2 127 153 129 138 2 141
3 141 76 0 75 7 73 -224 74 -113 1 -215 -2 -226 -6z"/>
<path d="M6584 4066 c-12 -9 -15 -48 -18 -211 -2 -110 -4 -203 -5 -207 0 -3
-17 -16 -37 -27 -40 -24 -36 -39 14 -60 l28 -12 1 -204 c0 -112 3 -208 7 -213
3 -5 39 -10 81 -11 58 -1 77 2 81 13 3 8 6 83 7 166 2 163 6 173 57 168 28 -3
33 -15 80 -198 18 -69 40 -131 48 -137 9 -8 46 -13 89 -13 89 0 94 7 70 94
-10 34 -19 70 -22 81 -2 11 -16 58 -30 104 -32 108 -31 126 5 181 l30 45 0
153 c0 203 -15 236 -132 278 -53 20 -330 27 -354 10z m285 -171 c33 -16 38
-38 35 -144 -2 -81 -16 -105 -71 -120 -40 -11 -82 3 -84 28 -6 79 -4 219 3
234 11 22 77 23 117 2z"/>
<path d="M7649 4060 c-13 -11 -28 -70 -54 -210 -35 -189 -39 -205 -53 -205
-12 -1 -57 -28 -64 -39 -8 -12 9 -36 27 -36 28 0 36 -26 24 -76 -6 -27 -12
-62 -15 -79 -2 -16 -13 -75 -24 -132 -12 -57 -20 -116 -18 -131 3 -27 4 -27
85 -29 l82 -2 10 32 c6 18 12 43 15 57 14 83 20 102 38 114 22 16 92 13 113
-4 15 -12 35 -93 35 -140 0 -44 24 -60 83 -59 94 1 107 7 107 42 0 18 -5 51
-10 75 -6 23 -13 59 -16 80 -3 20 -7 44 -9 52 -2 8 -7 31 -10 50 -8 51 -16 93
-21 112 -3 11 5 22 25 33 43 22 40 48 -7 69 -41 19 -39 13 -68 176 -42 235
-49 260 -77 261 -136 6 -182 3 -198 -11z m141 -486 c14 -75 9 -87 -41 -82 -32
3 -34 5 -31 38 13 147 49 169 72 44z"/>
<path d="M2131 2828 c134 -164 215 -255 314 -354 448 -449 999 -767 1610 -929
104 -28 273 -65 283 -63 4 1 32 -3 62 -10 63 -13 157 -24 305 -38 57 -5 482
-5 530 1 22 2 67 7 100 10 103 10 248 32 330 49 130 28 185 41 293 72 359 101
759 294 1079 521 268 190 484 395 736 698 l75 90 -255 3 -256 2 -106 -108
c-291 -296 -625 -526 -1003 -690 -216 -95 -510 -181 -733 -216 -16 -3 -60 -10
-96 -16 -155 -24 -491 -33 -689 -18 -86 7 -290 35 -323 44 -10 3 -30 7 -45 9
-16 2 -66 13 -113 25 -46 12 -94 23 -106 26 -13 2 -78 23 -145 45 -335 111
-633 267 -906 472 -140 105 -223 177 -360 314 l-114 113 -255 0 -255 0 43 -52z"/>
<path d="M4210 2610 c0 -20 7 -20 760 -20 753 0 760 0 760 20 0 20 -7 20 -760
20 -753 0 -760 0 -760 -20z"/>
<path d="M4500 2482 c-6 -2 -10 -11 -10 -21 0 -16 34 -17 480 -17 457 0 480 1
480 18 0 10 -6 18 -12 19 -39 3 -930 3 -938 1z"/>
</g>
</svg>
